<?xml version="1.0" encoding="UTF-8"?>
<svg id="Calque_1" data-name="Calque 1" xmlns="http://www.w3.org/2000/svg" viewBox="0 0 410 603.45">
  <defs>
    <style>
      .cls-1 {
        fill: #f04747;
      }
    </style>
  </defs>
  <path class="cls-1" d="m208.58,202.16h-34.4c21.27,0,34.4,21.65,34.4,48.34s-17.25,48.34-38.51,48.34h-38.48v102.45h77c58.18,0,105.35-44.58,105.35-99.56s-47.17-99.56-105.35-99.56Z"/>
  <path class="cls-1" d="m201.42,250.5c0-26.69-17.25-48.34-38.51-48.34h-66.84v199.13h28.36l.74-109.57h38.5c21.27,0,37.76-14.53,37.76-41.22Zm-52.68-.21l-.23.23-6.39-6.39-9.36-9.36v31.5l-8.48,8.48v-61.44l24.34,24.32,15.67-15.67,8.9-8.9v62.15l-8.9-8.9v-31.56l-9.28,9.28-6.27,6.27Z"/>
</svg>